<?xml version="1.0" encoding="UTF-8"?>
<svg id="Layer_1" xmlns="http://www.w3.org/2000/svg" xmlns:xlink="http://www.w3.org/1999/xlink" version="1.1" viewBox="0 0 1200 630">
  <!-- Generator: Adobe Illustrator 29.4.0, SVG Export Plug-In . SVG Version: 2.1.0 Build 152)  -->
  <defs>
    <style>
      .st0 {
        fill: #3c2415;
        opacity: .8;
      }

      .st1 {
        fill: #2b3990;
      }

      .st2 {
        fill: #fff;
      }
    </style>
  </defs>
  <image width="5136" height="3424" transform="scale(.2)" xlink:href="../../../../Downloads/medium-shot-man-woman-market.jpg"/>
  <rect class="st0" width="1200" height="630"/>
  <rect class="st1" x="115.6" y="242.9" width="352.6" height="111.3"/>
  <g>
    <path class="st2" d="M138.8,107.5v65.7c0,21.2,10.9,27.4,22.8,27.4s22.2-7.4,22.2-27.4v-65.7h23.9v64.5c0,37.7-22.1,47.3-46.4,47.3s-46.4-10-46.4-46.9v-65h23.9Z"/>
    <path class="st2" d="M232.9,217.8v-110.3h29.6c13.8,24.8,39.2,69.4,44.3,81.5h.3c-1.2-11.5-1.2-30.7-1.2-48.8v-32.7h21.6v110.3h-28c-11.9-21.6-40.1-72.9-45.5-85.6h-.3c.8,9.6,1.1,32.3,1.1,52.1v33.5h-21.8Z"/>
    <path class="st2" d="M377.7,107.5v110.3h-23.9v-110.3h23.9Z"/>
    <path class="st2" d="M427.5,127h-33.5v-19.6h90.8v19.6h-33.4v90.8h-23.9v-90.8Z"/>
    <path class="st2" d="M575.5,170.2h-52.8v28h58.2l-2.8,19.6h-78.5v-110.3h78.2v19.6h-55.1v23.6h52.8v19.6Z"/>
  </g>
  <g>
    <path class="st2" d="M182.6,330.4v-.9c0-11.5,5.2-20.8,19.4-31.2,9.3-6.8,12.1-9.1,12.1-14.9s-2.8-8.9-8.3-8.9-8.8,3.9-9.7,9.7h-13.8c.9-11.4,8.4-20.8,23.5-20.8s22.7,10.1,22.7,19.9-4.1,14.2-16.2,22.7c-8.1,5.7-11.4,9.4-12.5,12.4h31.2l-1.8,11.9h-46.5Z"/>
    <path class="st2" d="M289.2,297.1c0,18.1-5.7,34.5-25.3,34.5s-25.3-15.9-25.3-34.1,6.6-34.1,25.6-34.1,25,15,25,33.7ZM253.4,297.3c0,12.1,1.4,22.9,10.7,22.9s10.3-10.1,10.3-23-1.5-22.4-10.1-22.4-10.8,8.3-10.8,22.5Z"/>
    <path class="st2" d="M298,330.4v-.9c0-11.5,5.2-20.8,19.4-31.2,9.3-6.8,12.1-9.1,12.1-14.9s-2.8-8.9-8.3-8.9-8.8,3.9-9.7,9.7h-13.8c.9-11.4,8.4-20.8,23.5-20.8s22.7,10.1,22.7,19.9-4.1,14.2-16.2,22.7c-8.1,5.7-11.4,9.4-12.5,12.4h31.2l-1.8,11.9h-46.5Z"/>
    <path class="st2" d="M397.7,276.2h-26.4c-.4,3.5-1.6,9.8-2,12.5,2.5-2,6.2-3.5,11.8-3.5,13,0,20.3,9.4,20.3,21.9s-7,24.4-24.7,24.4-22.6-6.7-24-18.4h14.3c1.3,4.5,4.4,7.5,10.1,7.5s10.1-5,10.1-12.3-2.5-11.7-10.1-11.7-8.6,2.7-10.1,6.6l-12.9-1.7c1.7-8.4,4.6-27.9,5.7-36.9h40.1l-2,11.7Z"/>
  </g>
  <g>
    <path class="st2" d="M124.6,445.2v25.4c0,11.2,6.3,14,12.2,14s12.2-2.9,12.2-14v-25.4h3.3v25.3c0,13.1-7,17.2-15.7,17.2s-15.5-4.5-15.5-16.7v-25.8h3.4Z"/>
    <path class="st2" d="M196.3,487.2h-2.7c-.2-.5-.4-2.6-.4-6.7-1.5,2.9-4.8,7.2-13.6,7.2s-18.2-9.2-18.2-21.1,6.6-22,18.9-22,15.1,4.7,16.4,12.5h-3.2c-1.8-5.9-5.9-9.5-13.3-9.5-10.5,0-15.3,8.2-15.3,18.8s4.6,18.3,14.9,18.3,13.4-6.8,13.4-16.1v-.5h-13.6v-3h16.7v22.1Z"/>
    <path class="st2" d="M212.1,472.6l-5.3,14.5h-3.3l15.4-42h3.8l16.1,42h-3.5l-5.5-14.5h-17.7ZM228.8,469.6c-4.7-12.5-7.1-18.5-7.9-21.3h0c-1,3.2-3.7,10.6-7.5,21.3h15.5Z"/>
    <path class="st2" d="M246.3,487.2v-42h4.8c6.5,10.1,21.9,33.5,24.5,38.1h0c-.4-6.1-.3-12.2-.3-19.1v-19h3.3v42h-4.4c-6.2-9.7-21.8-34.1-24.8-38.8h0c.3,5.5.2,11.6.2,19.3v19.5h-3.3Z"/>
    <path class="st2" d="M291,445.2h13.9c11.5,0,19.5,8,19.5,20.6s-7.8,21.4-19.6,21.4h-13.9v-42ZM294.3,484.2h10.1c11.1,0,16.6-7.8,16.6-18.2s-4.9-17.8-16.6-17.8h-10.1v36Z"/>
    <path class="st2" d="M337.6,472.6l-5.3,14.5h-3.3l15.4-42h3.8l16.1,42h-3.5l-5.5-14.5h-17.7ZM354.2,469.6c-4.7-12.5-7.1-18.5-7.9-21.3h0c-1,3.2-3.7,10.6-7.5,21.3h15.5Z"/>
    <path class="st2" d="M387.3,487.2v-42h4.8c6.5,10.1,21.9,33.5,24.5,38.1h0c-.4-6.1-.3-12.2-.3-19.1v-19h3.3v42h-4.4c-6.2-9.7-21.8-34.1-24.8-38.8h0c.3,5.5.2,11.6.2,19.3v19.5h-3.3Z"/>
    <path class="st2" d="M456.8,466.5h-21.4v17.6h23.5l-.5,3h-26.2v-42h25.7v3h-22.5v15.4h21.4v3Z"/>
    <path class="st2" d="M493,487.2l-12.7-18.9h0l-12.5,18.9h-3.8l14.3-21.4-13.7-20.6h3.8l12,17.9h0l12.2-17.9h3.8l-14.2,20.4,14.6,21.6h-3.8Z"/>
    <path class="st2" d="M514.2,448.2h-14.1v-3h31.6v3h-14.2v39h-3.3v-39Z"/>
    <path class="st2" d="M124.7,517.2v42h-3.2v-42h3.2Z"/>
    <path class="st2" d="M137.1,559.2v-42h4.8c6.5,10.1,21.9,33.5,24.5,38.1h0c-.4-6.1-.3-12.2-.3-19.1v-19h3.3v42h-4.4c-6.2-9.7-21.8-34.1-24.8-38.8h0c.3,5.5.2,11.6.2,19.3v19.5h-3.3Z"/>
    <path class="st2" d="M191.8,559.2l-15.6-42h3.5l8.2,22c2.3,6.4,5,13.4,5.9,16.9h.1c.9-3.1,3.8-10.5,6.1-16.7l8.5-22.2h3.4l-16.2,42h-3.8Z"/>
    <path class="st2" d="M243.6,538.5h-21.4v17.6h23.5l-.5,3h-26.2v-42h25.7v3h-22.5v15.4h21.4v3Z"/>
    <path class="st2" d="M254.6,547.9c1.3,5.6,5,8.9,11.9,8.9s10.6-3.8,10.6-8.4-2.1-7.7-11.3-10c-8.9-2.2-12.7-5.1-12.7-11.2s4-10.7,13-10.7,13.1,5.6,13.7,10.7h-3.4c-1-4.5-3.9-7.7-10.5-7.7s-9.4,2.8-9.4,7.5,2.8,6.4,10.5,8.3c11.8,2.9,13.6,7.7,13.6,12.7s-4.5,11.5-14.2,11.5-14.3-6.1-15.1-11.8h3.4Z"/>
    <path class="st2" d="M298.1,520.2h-14.1v-3h31.6v3h-14.2v39h-3.3v-39Z"/>
    <path class="st2" d="M358.6,539.8c0-8.2,0-16.1.2-20.3h-.2c-1.7,5.6-10.2,26.3-15.5,39.6h-3.2c-4-10.3-12.8-33.3-14.8-39.7h-.1c.3,4.8.4,14.6.4,21.8v17.9h-3.2v-42h4.9c5.8,14.4,13,33.2,14.6,38h.1c1-3.1,9.4-24,15.2-38h4.8v42h-3.2v-19.3Z"/>
    <path class="st2" d="M398.9,538.5h-21.4v17.6h23.5l-.5,3h-26.2v-42h25.7v3h-22.5v15.4h21.4v3Z"/>
    <path class="st2" d="M409.2,559.2v-42h4.8c6.5,10.1,21.9,33.5,24.5,38.1h0c-.4-6.1-.3-12.2-.3-19.1v-19h3.3v42h-4.4c-6.2-9.7-21.8-34.1-24.8-38.8h0c.3,5.5.2,11.6.2,19.3v19.5h-3.3Z"/>
    <path class="st2" d="M462.3,520.2h-14.1v-3h31.6v3h-14.2v39h-3.3v-39Z"/>
    <path class="st2" d="M535.8,532.2l-10.4,16.2c-5.1,7.9-8.8,11.4-15.5,11.4s-10.9-5.5-10.9-10.7,2.3-9,11.2-13.8c6.1-4,8.4-5.6,8.4-9.5s-2.1-6.5-6.1-6.5-6.4,2.3-6.4,6.7,1.9,5.2,5.5,8.6l24.8,24.5h-4.5l-22.7-22.4c-3.9-3.7-6.2-6.5-6.2-10.7s3.2-9.5,9.6-9.5,9.1,4.1,9.1,9.2-2.2,6.7-9.6,11.3c-8.5,4.8-9.9,7.7-9.9,11.8s3.7,8,7.6,8,8.1-1.7,13.5-10.3l8.9-14.3h3.5Z"/>
    <path class="st2" d="M569,520.2h-14.1v-3h31.6v3h-14.2v39h-3.3v-39Z"/>
    <path class="st2" d="M596,539.5v19.6h-3.3v-42h15.1c8.3,0,12.7,4.4,12.7,11s-3.2,8.8-7.9,9.8c4.3,1,7.2,3.8,7.2,11v1.6c0,2.9-.2,6.9.5,8.5h-3.3c-.8-1.8-.6-5.2-.6-8.8v-1.1c0-6.9-2-9.8-10.1-9.8h-10.3ZM596,536.5h10.1c7.4,0,10.8-2.8,10.8-8.3s-3.4-8.1-9.9-8.1h-11v16.4Z"/>
    <path class="st2" d="M635.4,544.6l-5.3,14.5h-3.3l15.4-42h3.8l16.1,42h-3.5l-5.5-14.5h-17.7ZM652.1,541.6c-4.7-12.5-7.1-18.5-7.9-21.3h0c-1,3.2-3.7,10.6-7.5,21.3h15.5Z"/>
    <path class="st2" d="M669.6,517.2h13.9c11.5,0,19.5,8,19.5,20.6s-7.8,21.4-19.6,21.4h-13.9v-42ZM672.8,556.2h10.1c11.1,0,16.6-7.8,16.6-18.2s-4.9-17.8-16.6-17.8h-10.1v36Z"/>
    <path class="st2" d="M736.9,538.5h-21.4v17.6h23.5l-.5,3h-26.2v-42h25.7v3h-22.5v15.4h21.4v3Z"/>
  </g>
</svg>